# xmcd CD database file
#
# Track frame offsets:
#	150
#	17782
#	39025
#	56660
#
# Disc length: 1037 seconds
#
# Revision: 3
# Processed by: cddbd v1.5.2PL0 Copyright (c) Steve Scherf et al.
# Submitted via: CDex 1.70beta3
#
DISCID=26040b04
DTITLE=COA - SHOOTING STAR～映画版「ビーストウォーズメタルス コンボイ大変身!」
DYEAR=1999
DGENRE=Anime
TTITLE0=あの夢の彼方へ
TTITLE1=COA／森の木児童合唱団/WA!WA!ワンダーランド
TTITLE2=あの夢の彼方へ(オリジナル・カラオケ)
TTITLE3=WA!WA!ワンダーランド(オリジナル・カラオケ)
EXTD=YEAR: 1999
EXTT0=
EXTT1=
EXTT2=
EXTT3=
PLAYORDER=
